<svg width="97" height="30" viewBox="0 0 97 30" fill="none" xmlns="http://www.w3.org/2000/svg">
<path d="M27.7895 21.2615C27.6374 20.8959 27.4948 20.5115 27.3428 20.1834L26.6395 18.6178L26.611 18.5897C24.5201 14.0897 22.2866 9.51466 19.9201 5.01466L19.8251 4.82716C19.5875 4.38653 19.3499 3.89903 19.1028 3.44903C18.7987 2.91466 18.504 2.34278 18.0193 1.79903C17.5469 1.23009 16.9522 0.771709 16.2784 0.456959C15.6045 0.142209 14.8682 -0.0210571 14.1227 -0.0210571C13.3771 -0.0210571 12.6408 0.142209 11.9669 0.456959C11.2931 0.771709 10.6985 1.23009 10.226 1.79903C9.77932 2.34278 9.44668 2.91466 9.14255 3.44903C8.90495 3.93653 8.66735 4.41466 8.42024 4.85528L8.3252 5.04278C5.99671 9.54278 3.72525 14.1178 1.63436 18.6178L1.57733 18.674C1.36825 19.1615 1.12114 19.6678 0.88354 20.2115C0.731475 20.5397 0.579411 20.8959 0.427346 21.2897C0.0168025 22.3207 -0.114297 23.4395 0.046968 24.5357C0.208233 25.632 0.656296 26.6679 1.347 27.5413C2.0377 28.4147 2.9472 29.0955 3.98587 29.5166C5.02454 29.9377 6.15652 30.0846 7.27025 29.9428C8.338 29.8041 9.36615 29.4533 10.2925 28.9115C11.5281 28.2272 12.7161 27.2334 14.0466 25.799C15.3772 27.2334 16.5937 28.2272 17.8007 28.9209C18.9615 29.593 20.2759 29.9639 21.6214 29.999C23.1794 30.0054 24.6872 29.4555 25.8663 28.451C27.0454 27.4464 27.8163 26.0549 28.0366 24.5334C28.2911 23.4401 28.205 22.2964 27.7895 21.2522V21.2615ZM14.1417 22.8178C12.507 20.7553 11.4425 18.8615 11.0814 17.2397C10.9317 16.6387 10.8995 16.0151 10.9863 15.4022C11.0529 14.924 11.2334 14.5022 11.4805 14.1459C12.0508 13.3303 13.0487 12.824 14.1417 12.824C14.6607 12.8084 15.1756 12.9201 15.6401 13.1492C16.1045 13.3783 16.5041 13.7175 16.8028 14.1365C17.0499 14.5115 17.2305 14.924 17.2875 15.4022C17.3825 15.9459 17.3445 16.574 17.1925 17.2397C16.8313 18.8334 15.7669 20.7459 14.1417 22.8178ZM26.2498 24.2053C26.1418 24.9777 25.8305 25.7088 25.347 26.3256C24.8634 26.9424 24.2244 27.4235 23.4936 27.7209C22.7713 28.0209 21.973 28.1053 21.1937 28.0209C20.4333 27.9272 19.673 27.6834 18.8937 27.2334C17.5997 26.4445 16.4362 25.4643 15.4437 24.3272C17.4396 21.8897 18.6466 19.6678 19.1028 17.6897C19.3214 16.7522 19.3499 15.9084 19.2548 15.1303C19.1362 14.3927 18.8574 13.6892 18.4375 13.0678C17.9581 12.394 17.3182 11.8466 16.5742 11.4739C15.8301 11.1012 15.0046 10.9145 14.1702 10.9303C12.4119 10.9303 10.8438 11.7365 9.89337 13.0584C9.46553 13.6782 9.18903 14.3874 9.08552 15.1303C8.96197 15.9178 8.99048 16.7897 9.23759 17.6897C9.69378 19.6678 10.9293 21.9178 12.8966 24.3459C11.921 25.5048 10.7548 26.4936 9.44668 27.2709C8.65784 27.7209 7.90702 27.9553 7.1467 28.049C5.96429 28.1984 4.76988 27.8814 3.8231 27.167C2.87632 26.4525 2.25369 25.3982 2.09055 24.2334C1.99551 23.4834 2.06204 22.7334 2.36617 21.8897C2.46121 21.5897 2.60377 21.2897 2.75584 20.9334C2.96492 20.4459 3.21203 19.9397 3.44963 19.4334L3.48765 19.3678C5.54052 14.8959 7.78347 10.3303 10.112 5.85841L10.207 5.67091C10.4446 5.22091 10.6822 4.74278 10.9293 4.29278C11.1764 3.81466 11.4425 3.35528 11.7847 2.98028C12.0808 2.63155 12.4509 2.3511 12.8688 2.15867C13.2867 1.96625 13.7423 1.86652 14.2034 1.86652C14.6646 1.86652 15.1202 1.96625 15.5381 2.15867C15.956 2.3511 16.3261 2.63155 16.6222 2.98028C16.9549 3.35528 17.2305 3.81466 17.4776 4.29278C17.7152 4.74278 17.9528 5.23028 18.1999 5.67091L18.2949 5.85841C20.6139 10.3303 22.8569 14.8959 24.9478 19.3678L24.9763 19.3959C25.2234 19.8834 25.4325 20.4272 25.6701 20.8959C25.8221 21.2615 25.9742 21.5522 26.0692 21.8615C26.2498 22.7053 26.3449 23.4553 26.2498 24.2053ZM39.4794 22.6115C38.7633 22.6219 38.0539 22.473 37.404 22.176C36.7542 21.879 36.1804 21.4415 35.7253 20.8959C34.7028 19.7334 34.1601 18.2344 34.2047 16.6959C34.189 15.1239 34.7493 13.5992 35.7824 12.4022C36.2602 11.8496 36.8551 11.4071 37.525 11.1059C38.195 10.8046 38.9238 10.6518 39.66 10.6584C40.3528 10.6397 41.039 10.7951 41.6542 11.11C42.2693 11.4249 42.7932 11.8889 43.1765 12.4584L43.2715 10.9865H46.0467V22.3115H43.262L43.167 20.6615C42.7718 21.2697 42.2256 21.768 41.5802 22.1093C40.9348 22.4506 40.2116 22.6235 39.4794 22.6115ZM40.2017 19.9115C40.753 19.9115 41.2377 19.7615 41.6939 19.4897C42.1121 19.1897 42.4542 18.7959 42.7203 18.3178C42.9579 17.8397 43.0815 17.2678 43.0815 16.6303C43.1185 16.0766 43.0093 15.5229 42.7644 15.0233C42.5195 14.5238 42.1474 14.0955 41.6844 13.7803C41.2395 13.5069 40.7259 13.3619 40.2017 13.3619C39.6776 13.3619 39.164 13.5069 38.7191 13.7803C38.3009 14.0803 37.9588 14.474 37.6927 14.9522C37.4413 15.4794 37.3177 16.0571 37.3315 16.6397C37.2945 17.1933 37.4037 17.747 37.6486 18.2466C37.8935 18.7462 38.2656 19.1745 38.7286 19.4897C39.1753 19.7615 39.66 19.9115 40.2017 19.9115ZM50.7987 7.93028C50.7987 8.25841 50.7417 8.55841 50.5897 8.80216C50.4376 9.03653 50.2285 9.25216 49.9529 9.40216C49.6773 9.55216 49.3826 9.60841 49.0785 9.60841C48.7744 9.60841 48.4703 9.55216 48.1946 9.40216C47.934 9.25901 47.7148 9.05246 47.5579 8.80216C47.4107 8.53509 47.3385 8.23409 47.3488 7.93028C47.3488 7.59278 47.4153 7.29278 47.5579 7.05841C47.7099 6.77716 47.9285 6.60841 48.1946 6.45841C48.4703 6.30841 48.7649 6.24278 49.0785 6.24278C49.381 6.23591 49.6802 6.30658 49.9467 6.4479C50.2133 6.58922 50.4381 6.79635 50.5992 7.04903C50.7375 7.32236 50.806 7.62488 50.7987 7.93028ZM47.5674 22.274V10.9678H50.5897V22.2928H47.5579L47.5674 22.274ZM58.6681 13.9303V13.9678C58.5255 13.9022 58.3354 13.874 58.1929 13.8459C58.0028 13.8084 57.8507 13.8084 57.6702 13.8084C56.8243 13.8084 56.1875 14.0522 55.7694 14.5584C55.3132 15.074 55.1041 15.7959 55.1041 16.724V22.2834H52.0723V10.9584H54.857L54.952 12.674C55.2561 12.074 55.6173 11.624 56.1305 11.2865C56.641 10.9586 57.242 10.7948 57.8507 10.8178C58.0693 10.8178 58.2784 10.8365 58.459 10.874C58.554 10.9022 58.6111 10.9022 58.6681 10.9303V13.9303ZM59.8846 22.274V6.31778H62.9069V12.4115C63.3346 11.8678 63.8193 11.4459 64.4275 11.1178C65.3905 10.6521 66.4844 10.52 67.5328 10.7428C68.5812 10.9656 69.5229 11.5304 70.206 12.3459C71.2308 13.5108 71.7737 15.0136 71.7266 16.5553C71.7423 18.1273 71.1821 19.652 70.149 20.849C69.6711 21.4016 69.0762 21.8441 68.4063 22.1453C67.7363 22.4466 67.0076 22.5993 66.2713 22.5928C65.5785 22.6115 64.8923 22.4561 64.2772 22.1412C63.662 21.8263 63.1382 21.3623 62.7548 20.7928L62.6598 22.2647L59.8846 22.2928V22.274ZM65.7296 19.9115C66.2713 19.9115 66.756 19.7615 67.2122 19.4897C67.6304 19.1897 67.9725 18.7959 68.2387 18.3178C68.4858 17.8397 68.5998 17.2678 68.5998 16.6303C68.5998 16.0022 68.4858 15.4303 68.2387 14.9522C67.9891 14.4911 67.6384 14.0908 67.2122 13.7803C66.7674 13.5069 66.2537 13.3619 65.7296 13.3619C65.2055 13.3619 64.6918 13.5069 64.247 13.7803C63.8193 14.0803 63.4866 14.474 63.211 14.9522C62.9597 15.4794 62.836 16.0571 62.8499 16.6397C62.8128 17.1933 62.9221 17.747 63.167 18.2466C63.4119 18.7462 63.784 19.1745 64.247 19.4897C64.6936 19.7615 65.1784 19.9115 65.7296 19.9115ZM72.8671 22.2834V10.9584H75.6518L75.7468 12.4303C76.0968 11.8661 76.5932 11.4043 77.1847 11.0928C77.7762 10.7813 78.4413 10.6313 79.1113 10.6584C79.8774 10.6454 80.6304 10.8554 81.2761 11.2623C81.9219 11.6691 82.4317 12.2548 82.7418 12.9459C83.0745 13.6584 83.255 14.5397 83.255 15.524V22.3115H80.2233V15.9178C80.2233 15.1303 80.0427 14.5115 79.6815 14.0522C79.3204 13.6022 78.8262 13.3584 78.1989 13.3584C77.7427 13.3584 77.3435 13.4522 76.9919 13.6584C76.6592 13.874 76.3836 14.1459 76.1745 14.5303C75.9631 14.9188 75.8583 15.3551 75.8704 15.7959V22.2834H72.8671ZM84.7662 22.2834V6.30841H87.798V12.4022C88.2086 11.8554 88.7428 11.4105 89.3582 11.103C89.9736 10.7954 90.6531 10.6336 91.343 10.6303C92.0591 10.6199 92.7685 10.7688 93.4184 11.0658C94.0682 11.3628 94.642 11.8003 95.0971 12.3459C96.1146 13.5108 96.6536 15.0089 96.6082 16.5459C96.6247 18.118 96.0644 19.643 95.0305 20.8397C94.5527 21.3922 93.9578 21.8347 93.2879 22.136C92.6179 22.4372 91.8892 22.59 91.1529 22.5834C90.4601 22.6021 89.7739 22.4467 89.1587 22.1318C88.5436 21.817 88.0197 21.3529 87.6364 20.7834L87.5509 22.2553L84.7662 22.2834ZM90.6397 19.9115C91.1909 19.9115 91.6756 19.7615 92.1223 19.4897C92.55 19.1897 92.8826 18.7959 93.1582 18.3178C93.3958 17.8397 93.5194 17.2678 93.5194 16.6303C93.5564 16.0766 93.4472 15.5229 93.2023 15.0233C92.9574 14.5238 92.5853 14.0955 92.1223 13.7803C91.6775 13.5069 91.1638 13.3619 90.6397 13.3619C90.1155 13.3619 89.6019 13.5069 89.157 13.7803C88.7389 14.0803 88.3967 14.474 88.1306 14.9522C87.8653 15.4747 87.7409 16.0559 87.7695 16.6397C87.7324 17.1933 87.8417 17.747 88.0866 18.2466C88.3314 18.7462 88.7036 19.1745 89.1665 19.4897C89.6132 19.7615 90.0694 19.9115 90.6397 19.9115Z" fill="#FF385C"/>
</svg>
