<svg width="97" height="30" viewBox="0 0 97 30" fill="none" xmlns="http://www.w3.org/2000/svg">
<g clip-path="url(#clip0_129_71)">
<path fill-rule="evenodd" clip-rule="evenodd" d="M60.1402 23.4609C54.5068 27.725 46.3415 30 39.3114 30C29.4539 30 20.5797 26.256 13.8661 20.0289C13.3386 19.5392 13.8112 18.8719 14.4442 19.2532C21.6895 23.5823 30.6481 26.1866 39.9021 26.1866C46.1432 26.1866 53.0088 24.8606 59.3216 22.1089C60.2753 21.6929 61.0728 22.7502 60.1402 23.4609Z" fill="#FF9900"/>
<path fill-rule="evenodd" clip-rule="evenodd" d="M62.4824 20.7093C61.7651 19.7646 57.7225 20.2629 55.908 20.4839C55.3552 20.5533 55.2708 20.0593 55.7688 19.7039C58.9885 17.3769 64.2716 18.0486 64.8877 18.8286C65.5038 19.6129 64.7274 25.0513 61.7018 27.647C61.2376 28.0457 60.7945 27.8333 61.0013 27.3047C61.6807 25.5627 63.204 21.6583 62.4824 20.7093Z" fill="#FF9900"/>
<path fill-rule="evenodd" clip-rule="evenodd" d="M56.0349 3.27605V1.01402C56.0349 0.671685 56.2881 0.442017 56.5919 0.442017H66.4535C66.77 0.442017 67.0232 0.676019 67.0232 1.01402V2.95104C67.019 3.27605 66.7531 3.70072 66.2805 4.37239L61.1703 11.8648C63.0693 11.8171 65.0737 12.1075 66.7953 13.1041C67.1835 13.3295 67.289 13.6588 67.3186 13.9838V16.3975C67.3186 16.7269 66.9641 17.1125 66.5928 16.9132C63.5587 15.2795 59.5288 15.1018 56.1741 16.9305C55.8323 17.1212 55.4736 16.7399 55.4736 16.4105V14.1182C55.4736 13.7498 55.4778 13.1215 55.8365 12.5625L61.7569 3.84372H56.6045C56.288 3.84372 56.0349 3.61405 56.0349 3.27605Z" fill="black"/>
<path fill-rule="evenodd" clip-rule="evenodd" d="M20.0611 17.3898H17.0608C16.7739 17.3682 16.546 17.1472 16.5249 16.8655V1.05302C16.5249 0.736681 16.7823 0.485343 17.103 0.485343H19.9007C20.1919 0.498335 20.424 0.728012 20.4451 1.01401V3.08104H20.4999C21.23 1.08335 22.6014 0.151672 24.4497 0.151672C26.3275 0.151672 27.5006 1.08335 28.3445 3.08104C29.0703 1.08335 30.7203 0.151672 32.4884 0.151672C33.7459 0.151672 35.1215 0.684678 35.9612 1.88069C36.9107 3.21104 36.7166 5.14372 36.7166 6.83807L36.7124 16.8178C36.7124 17.1342 36.455 17.3898 36.1343 17.3898H33.1382C32.8386 17.3682 32.5981 17.1212 32.5981 16.8178V8.43709C32.5981 7.76975 32.6571 6.10573 32.5137 5.47306C32.29 4.41138 31.6191 4.11238 30.7498 4.11238C30.024 4.11238 29.2644 4.61072 28.9564 5.40806C28.6484 6.2054 28.6779 7.54008 28.6779 8.43709V16.8178C28.6779 17.1342 28.4205 17.3898 28.0998 17.3898H25.1037C24.7999 17.3682 24.5636 17.1212 24.5636 16.8178L24.5594 8.43709C24.5594 6.67341 24.8421 4.07771 22.7111 4.07771C20.5548 4.07771 20.6392 6.6084 20.6392 8.43709V16.8178C20.6392 17.1342 20.3818 17.3898 20.0611 17.3898" fill="black"/>
<path fill-rule="evenodd" clip-rule="evenodd" d="M75.5129 0.151672C79.9648 0.151672 82.3743 4.07771 82.3743 9.06977C82.3743 13.8928 79.7116 17.7192 75.5129 17.7192C71.1412 17.7192 68.7612 13.7931 68.7612 8.90076C68.7612 3.97804 71.1707 0.151672 75.5129 0.151672ZM75.5382 3.38004C73.327 3.38004 73.1878 6.47407 73.1878 8.40243C73.1878 10.3351 73.1583 14.4605 75.5129 14.4605C77.838 14.4605 77.9477 11.1325 77.9477 9.10443C77.9477 7.76975 77.8929 6.17507 77.5004 4.90972C77.1628 3.80905 76.4919 3.38004 75.5382 3.38004Z" fill="black"/>
<path fill-rule="evenodd" clip-rule="evenodd" d="M88.1472 17.3898H85.1596C84.86 17.3682 84.6194 17.1212 84.6194 16.8178L84.6152 1.00101C84.6406 0.710678 84.8895 0.485343 85.1933 0.485343H87.9742C88.2358 0.498335 88.451 0.680345 88.5101 0.927348V3.34537H88.565C89.4047 1.18302 90.582 0.151672 92.6539 0.151672C94 0.151672 95.3124 0.650012 96.1563 2.01502C96.9412 3.28037 96.9412 5.40806 96.9412 6.93774V16.8915C96.9075 17.1688 96.6585 17.3898 96.3631 17.3898H93.3544C93.0801 17.3682 92.8523 17.1602 92.8227 16.8915V8.30275C92.8227 6.57374 93.0168 4.04304 90.9449 4.04304C90.2149 4.04304 89.5439 4.54572 89.2106 5.30839C88.7886 6.27474 88.7337 7.23674 88.7337 8.30275V16.8178C88.7295 17.1342 88.4679 17.3898 88.1472 17.3898" fill="black"/>
<path fill-rule="evenodd" clip-rule="evenodd" d="M48.173 9.83677C48.173 11.0371 48.2025 12.0381 47.6117 13.1041C47.1349 13.9708 46.3754 14.5038 45.5356 14.5038C44.3836 14.5038 43.7084 13.6025 43.7084 12.2721C43.7084 9.6461 45.9998 9.16943 48.173 9.16943V9.83677ZM51.1986 17.3465C51.0002 17.5285 50.7133 17.5415 50.4896 17.4202C49.4938 16.5708 49.3123 16.1765 48.768 15.3662C47.1223 17.0908 45.9534 17.6065 43.8224 17.6065C41.2947 17.6065 39.3325 16.0075 39.3325 12.8051C39.3325 10.3048 40.6491 8.60176 42.5311 7.76975C44.16 7.03307 46.4344 6.90307 48.173 6.69941V6.30073C48.173 5.56839 48.2278 4.70171 47.8059 4.06905C47.443 3.50137 46.7425 3.26737 46.1222 3.26737C44.9786 3.26737 43.9616 3.86971 43.7127 5.11772C43.662 5.39506 43.4637 5.66806 43.1894 5.68106L40.282 5.36039C40.0372 5.30406 39.7629 5.10039 39.8347 4.71472C40.5014 1.09201 43.6916 0 46.5441 0C48.0042 0 49.9115 0.398672 51.0635 1.53402C52.5236 2.9337 52.3843 4.80138 52.3843 6.83374V11.6351C52.3843 13.0781 52.9667 13.7108 53.5152 14.4908C53.7051 14.7682 53.7473 15.1018 53.5026 15.3098C52.8907 15.8342 51.802 16.8092 51.2028 17.3552L51.1986 17.3465" fill="black"/>
<path fill-rule="evenodd" clip-rule="evenodd" d="M8.84046 9.83701C8.84046 11.0374 8.86999 12.0384 8.27922 13.1044C7.80238 13.9711 7.04704 14.5041 6.20309 14.5041C5.05108 14.5041 4.38014 13.6027 4.38014 12.2724C4.38014 9.64634 6.67148 9.16967 8.84046 9.16967V9.83701ZM11.866 17.3468C11.6677 17.5288 11.3808 17.5418 11.1571 17.4204C10.1612 16.5711 9.98401 16.1767 9.43544 15.3664C7.78973 17.0911 6.62507 17.6068 4.48985 17.6068C1.96642 17.6068 0 16.0077 0 12.8054C0 10.305 1.32079 8.602 3.1986 7.76999C4.82744 7.03332 7.1019 6.90332 8.84046 6.69965V6.30098C8.84046 5.56863 8.89531 4.70196 8.47755 4.06929C8.11043 3.50161 7.40995 3.26761 6.79386 3.26761C5.6503 3.26761 4.62911 3.86995 4.38014 5.11796C4.3295 5.3953 4.13117 5.6683 3.86111 5.6813L0.949452 5.36063C0.704704 5.3043 0.434637 5.10063 0.502154 4.71496C1.1731 1.09226 4.35904 0.000244141 7.21162 0.000244141C8.67166 0.000244141 10.579 0.398916 11.731 1.53426C13.1911 2.93394 13.0518 4.80163 13.0518 6.83398V11.6354C13.0518 13.0784 13.6341 13.7111 14.1827 14.4911C14.3768 14.7684 14.419 15.1021 14.1743 15.3101C13.5624 15.8344 12.4737 16.8094 11.8745 17.3554L11.866 17.3467" fill="black"/>
</g>
<defs>
<clipPath id="clip0_129_71">
<rect width="96.9412" height="30" fill="white"/>
</clipPath>
</defs>
</svg>
