<svg width="24" height="24" viewBox="0 0 24 24" fill="none" xmlns="http://www.w3.org/2000/svg">
<path d="M11.9993 2.25C10.6871 2.25155 9.38865 2.51772 8.18166 3.03258C6.97467 3.54744 5.8839 4.30042 4.97458 5.24649C4.06527 6.19257 3.35608 7.3123 2.88943 8.53874C2.42278 9.76518 2.20825 11.0731 2.25867 12.3844C2.45555 17.5125 6.66492 21.6469 11.8024 21.75C13.524 21.7835 15.2238 21.3605 16.7289 20.524C18.234 19.6875 19.4907 18.4673 20.3712 16.9875C20.408 16.926 20.4265 16.8552 20.4244 16.7836C20.4222 16.7119 20.3996 16.6423 20.3591 16.5831C20.3187 16.5239 20.2621 16.4776 20.1961 16.4496C20.1301 16.4215 20.0575 16.413 19.9868 16.425C19.7021 16.4753 19.4134 16.5004 19.1243 16.5C17.4087 16.5 16.4524 15.75 15.9462 15.1219C15.8293 14.9731 15.7228 14.8165 15.6274 14.6531C15.1736 15.2749 14.5678 15.7698 13.868 16.0906C13.1682 16.4114 12.3979 16.5474 11.6306 16.4854C10.8633 16.4234 10.1247 16.1657 9.48543 15.7368C8.84619 15.3078 8.32768 14.7221 7.97946 14.0356C7.63124 13.349 7.46496 12.5846 7.49653 11.8155C7.52809 11.0463 7.75644 10.2981 8.15974 9.64243C8.56305 8.98673 9.12781 8.44545 9.80005 8.07035C10.4723 7.69526 11.2295 7.49888 11.9993 7.5C13.1081 7.49662 14.1782 7.90792 14.9993 8.65313V8.27813C14.9962 8.08351 15.0671 7.89496 15.1976 7.75055C15.3281 7.60613 15.5085 7.51659 15.7024 7.5C15.8048 7.49359 15.9074 7.50824 16.0038 7.54305C16.1003 7.57786 16.1886 7.63209 16.2633 7.70238C16.338 7.77268 16.3975 7.85754 16.4381 7.95173C16.4787 8.04592 16.4995 8.14744 16.4993 8.25V12C16.4993 13.3688 16.9587 15 19.1243 15C21.2899 15 21.7118 13.4813 21.7493 12.1406V12C21.7468 9.4149 20.7188 6.93639 18.8908 5.10845C17.0629 3.28051 14.5844 2.25248 11.9993 2.25V2.25Z" fill="#61BDD2"/>
<path d="M12 15C13.6569 15 15 13.6569 15 12C15 10.3431 13.6569 9 12 9C10.3431 9 9 10.3431 9 12C9 13.6569 10.3431 15 12 15Z" fill="#61BDD2"/>
</svg>
