<svg width="13" height="9" viewBox="0 0 13 9" fill="none" xmlns="http://www.w3.org/2000/svg">
<path d="M6.72669 8C6.81692 8.00008 6.90613 7.98098 6.9884 7.94396C7.07068 7.90693 7.14414 7.85283 7.20392 7.78525L12.2943 2.05853C12.3497 1.99586 12.3922 1.9229 12.4193 1.84381C12.4465 1.76473 12.4578 1.68107 12.4526 1.59761C12.4475 1.51415 12.4259 1.43253 12.3892 1.3574C12.3525 1.28227 12.3013 1.21511 12.2387 1.15975C12.176 1.10439 12.103 1.06192 12.0239 1.03476C11.9449 1.0076 11.8612 0.996277 11.7777 1.00145C11.6943 1.00662 11.6127 1.02818 11.5375 1.06489C11.4624 1.10161 11.3952 1.15276 11.3399 1.21543L6.72669 6.40924L2.1135 1.21543C2.02797 1.11845 1.91493 1.04983 1.78943 1.01871C1.66393 0.987584 1.53192 0.995435 1.41099 1.04122C1.29006 1.087 1.18595 1.16853 1.11252 1.27496C1.03909 1.3814 0.999835 1.50767 0.999972 1.63698C1.00053 1.79206 1.05701 1.94174 1.15905 2.05853L6.24946 7.78525C6.30924 7.85283 6.3827 7.90693 6.46498 7.94396C6.54726 7.98098 6.63647 8.00008 6.72669 8Z" fill="#272D4E" stroke="#272D4E" stroke-width="0.5"/>
</svg>
