<svg width="24" height="24" viewBox="0 0 24 24" fill="none" xmlns="http://www.w3.org/2000/svg">
<circle cx="12" cy="12" r="12" fill="#0077B5"/>
<g clip-path="url(#clip0_286_231)">
<path d="M18.9967 17V16.9995H18.9999V12.5985C18.9999 10.4455 18.4978 8.78702 15.7711 8.78702C14.4602 8.78702 13.5806 9.45102 13.2214 10.0805H13.1835V8.98802H10.5981V16.9995H13.2902V13.0325C13.2902 11.988 13.5047 10.978 14.906 10.978C16.2867 10.978 16.3073 12.17 16.3073 13.0995V17H18.9967Z" fill="white"/>
<path d="M6.2146 8.98849H8.90993V17H6.2146V8.98849Z" fill="white"/>
<path d="M7.56108 5C6.69929 5 6 5.6455 6 6.441C6 7.2365 6.69929 7.8955 7.56108 7.8955C8.42288 7.8955 9.12217 7.2365 9.12217 6.441C9.12163 5.6455 8.42233 5 7.56108 5V5Z" fill="white"/>
</g>
<defs>
<clipPath id="clip0_286_231">
<rect width="13" height="12" fill="white" transform="translate(6 5)"/>
</clipPath>
</defs>
</svg>
