<svg width="94" height="32" viewBox="0 0 94 32" fill="none" xmlns="http://www.w3.org/2000/svg">
<g clip-path="url(#clip0_129_108)">
<path fill-rule="evenodd" clip-rule="evenodd" d="M82.1776 14.9134L76.3073 25.0705L71.2988 25.0904L82.1776 5.97242L93.0157 25.0904H87.9279L82.1776 14.9124V14.9134ZM66.3707 20.6688H71.9802L69.3757 25.0904H62.0644L62.0842 19.7066V6.08996H66.3915L66.3716 20.6688H66.3707ZM50.9862 6.09096C56.3349 6.11088 60.662 10.3542 60.6421 15.5997C60.6223 20.8262 56.2952 25.0705 50.9455 25.0705C45.6167 25.0506 41.2896 20.8072 41.2896 15.5608C41.3094 10.3343 45.6366 6.09096 50.9862 6.09096V6.09096ZM50.9664 20.6499C53.8306 20.6499 56.1335 18.3897 56.1335 15.5997C56.1544 12.8106 53.8306 10.5305 50.9862 10.5305C48.1408 10.5106 45.8171 12.7907 45.8171 15.5807C45.7972 18.3698 48.121 20.6499 50.9654 20.6499H50.9664ZM33.3167 14.0906C33.2572 13.3037 33.0559 12.2628 32.7554 11.2617C32.137 9.19391 31.062 7.29295 29.6104 5.70049C28.8487 4.87572 27.9879 4.10873 26.7045 3.20527C25.7262 2.72037 24.7643 2.20278 23.8204 1.65336C23.1996 1.29974 22.4577 0.866443 21.4769 0.552674C20.3138 0.276957 19.125 0.125703 17.9303 0.101443C16.7699 0.0615997 15.6065 0.161209 14.4848 0.376365C13.3026 0.572596 12.3208 0.886365 11.0186 1.20113C8.07299 2.47812 5.78992 4.40357 3.8262 6.95855C-3.025 16.5659 3.16568 30.0251 14.6048 31.6159C16.4882 31.8719 18.3716 31.7732 20.1538 31.3609L21.4164 31.0272C21.456 31.0072 21.5165 30.9873 21.5562 30.9873L22.9992 30.4375C23.0786 30.3976 23.1391 30.3777 23.2194 30.3389L23.8204 30.0639C24.9736 29.4924 26.0561 28.787 27.0457 27.9622C26.1449 28.7842 25.1652 29.5146 24.1209 30.1426L24.1804 30.1825C24.3818 30.1227 24.5613 30.0639 24.7616 30.0251C24.7616 30.0251 24.7616 30.3389 24.722 30.2801C24.4016 30.5162 24.9025 30.3 25.5431 29.9653C26.1848 29.6316 26.8057 29.2183 27.366 28.7471C28.1882 28.0598 28.9092 27.3127 29.9308 26.0955C30.9721 24.2677 32.2753 22.6759 32.8763 20.5343C33.0767 19.9645 33.2562 19.2972 33.3772 18.6089C33.4962 17.9216 33.5775 17.2143 33.5775 16.4872C33.5577 15.76 33.4774 15.013 33.3167 14.0906V14.0906ZM18.4916 30.2412C21.9975 29.6904 24.9421 27.746 27.3462 25.0934C28.0077 24.1302 28.5284 23.2457 29.1691 22.2835C29.9704 20.3182 29.9109 18.57 30.1708 17.3329C30.4921 15.0917 29.7304 13.2847 29.0897 11.3593C28.1079 9.11908 26.8057 7.44963 24.5216 6.15271C18.7515 2.57674 10.8986 3.57781 7.15262 8.92285C7.13279 8.92285 7.03163 9.06031 6.83129 9.33523C7.09212 8.23555 7.75364 7.58709 8.41416 6.95756C10.3779 5.34687 12.6619 4.06888 15.2664 3.44135C18.2119 3.12658 21.1357 3.44135 23.7599 4.71834C27.6874 6.95756 30.2918 10.4758 30.9523 14.6394V18.4913C30.1311 24.7986 24.722 29.5928 18.4916 30.2412V30.2412ZM32.8962 15.8975C32.7554 6.66371 23.6003 0.435135 14.6852 1.6932C12.0808 2.34066 9.23536 3.63758 7.21213 5.44549C6.23027 6.09295 5.77009 7.29225 4.78823 8.25447C0.860788 14.0119 1.54313 21.38 6.43061 25.8604C7.05754 26.4829 7.72697 27.0607 8.434 27.5896C4.34788 25.1323 2.50416 21.4179 1.86347 16.9006C1.86347 15.2889 2.18382 13.6971 2.524 12.0864C4.80905 5.03211 12.0004 -0.0957831 19.8345 1.20113C21.1367 1.5159 22.4389 1.84959 23.7619 2.16435C25.4043 2.81181 27.0268 3.77504 28.3291 5.05303C29.6313 6.32902 30.6131 7.9407 31.595 9.53146C32.2555 10.8095 32.5768 12.4201 32.8972 13.6971C32.9567 14.4243 32.9567 15.1713 32.8972 15.8985L32.8962 15.8975Z" fill="black"/>
<path fill-rule="evenodd" clip-rule="evenodd" d="M24.7627 16.0359C24.7627 20.0053 21.4373 23.2277 17.3303 23.2277C13.2244 23.2277 9.89795 20.0053 9.89795 16.0359C9.89795 12.0675 13.2234 8.84509 17.3303 8.84509C21.4373 8.84509 24.7627 12.0675 24.7627 16.0369V16.0359Z" fill="white"/>
<path fill-rule="evenodd" clip-rule="evenodd" d="M24.8031 14.8177C24.7029 14.2678 24.5423 13.8355 24.3826 13.2269C23.7409 11.8902 22.7997 10.8492 21.557 9.9647C16.9096 6.8808 10.5185 9.84716 9.83818 15.1135C9.57834 17.1963 10.3192 19.2005 11.6412 20.7335C11.2406 20.3201 10.8002 19.8888 10.4997 19.3967L10.46 19.4366C10.4997 19.5541 10.6604 19.6328 10.7 19.7503C10.7 19.7503 10.5394 19.7503 10.58 19.7304C10.46 19.5939 10.5602 19.8101 10.7397 20.1039C10.9004 20.3988 11.1007 20.6747 11.3407 20.9297C11.6819 21.3032 12.0419 21.6369 12.6429 22.0892C13.5256 22.5404 14.3061 23.1301 15.3277 23.405C15.6083 23.4847 15.9287 23.5624 16.25 23.6212C16.5902 23.6809 16.9105 23.7008 17.2716 23.7008C17.6117 23.7008 17.9727 23.661 18.4131 23.5813C18.8672 23.5276 19.316 23.436 19.755 23.3074C20.7354 23.011 21.6386 22.5008 22.4 21.8132C22.7809 21.4606 23.3224 21.0084 23.7419 20.4187C24.0831 19.7513 24.1228 19.4166 24.2834 19.1218C24.4431 18.827 24.6434 18.4933 24.7843 18.041C24.8991 17.5045 24.9661 16.9589 24.9846 16.4104C24.9648 15.8606 24.9251 15.3297 24.8041 14.8187L24.8031 14.8177ZM20.0346 11.164C20.716 11.5565 20.8162 11.6152 20.4552 11.3602C20.9768 11.4778 21.2972 11.7726 21.6175 12.0675C22.399 12.952 23.0397 13.9929 23.3601 15.1912C23.5406 16.5469 23.3997 17.9026 22.8196 19.1019C21.7782 20.9287 20.115 22.1469 18.1314 22.4806C17.9113 22.4806 17.6712 22.4806 17.4501 22.5005C18.0114 22.4019 18.3724 22.0483 19.394 21.6748C20.4948 21.2823 21.7375 19.4555 22.3395 18.3937C24.1019 15.505 22.0182 12.8335 20.0346 11.164ZM16.2689 22.5195C13.2241 22.2057 10.8795 19.7105 10.5592 16.8218C10.8389 18.4335 11.8009 19.6706 13.1031 20.7713C13.5643 21.0662 14.2446 21.4786 14.7058 21.7734C15.4873 22.0682 15.9475 22.383 16.7092 22.5205H16.2689V22.5195ZM24.4619 17.274C24.3231 17.8836 24.1823 18.4723 24.0414 19.082C23.7409 19.829 23.3006 20.595 22.6996 21.2036C22.0985 21.8132 21.3369 22.2844 20.5762 22.7366C19.9751 23.0504 19.2135 23.2078 18.5926 23.3642C18.2316 23.404 17.8111 23.2466 17.4501 23.2277C21.8982 23.1092 24.943 18.9644 24.2824 14.8575C23.9611 13.6592 23.3204 12.6173 22.5389 11.5764C22.2185 11.1242 21.5967 10.8492 21.1365 10.397C18.3516 8.64886 14.6662 9.00248 12.5626 11.3015C12.2676 11.6036 11.993 11.925 11.7404 12.2637C12.8631 10.6132 14.6662 9.4547 16.8292 9.12002C17.5909 9.1001 18.3724 9.23855 19.1331 9.37601C22.4992 10.397 25.0035 13.6592 24.4619 17.275V17.274Z" fill="#D7DF23"/>
</g>
<defs>
<clipPath id="clip0_129_108">
<rect width="92.2353" height="31.875" fill="white" transform="translate(0.882324 0.0625)"/>
</clipPath>
</defs>
</svg>
