<svg width="19" height="19" viewBox="0 0 19 19" fill="none" xmlns="http://www.w3.org/2000/svg">
<path d="M17.8125 12.578L13.4156 10.703C13.1888 10.6014 12.9397 10.5592 12.692 10.5805C12.4443 10.6018 12.2061 10.6859 12 10.8249L9.64687 12.3905C8.21273 11.694 7.05158 10.5394 6.34687 9.10928L7.90312 6.72803C8.04116 6.52167 8.12547 6.28409 8.14839 6.03688C8.17131 5.78966 8.13212 5.54064 8.03437 5.31241L6.15 0.915535C6.01851 0.618642 5.79586 0.371351 5.51435 0.209525C5.23284 0.0476994 4.90711 -0.0202487 4.58437 0.0155347C3.31837 0.181382 2.15566 0.801321 1.31243 1.76009C0.469194 2.71886 0.00281471 3.95121 0 5.22803C0 12.6718 6.05625 18.728 13.5 18.728C14.7768 18.7252 16.0092 18.2588 16.9679 17.4156C17.9267 16.5724 18.5467 15.4097 18.7125 14.1437C18.7483 13.8209 18.6803 13.4952 18.5185 13.2137C18.3567 12.9322 18.1094 12.7095 17.8125 12.578Z" fill="#61BDD2"/>
</svg>
