<svg width="24" height="24" viewBox="0 0 24 24" fill="none" xmlns="http://www.w3.org/2000/svg">
<circle cx="12" cy="12" r="12" fill="#5DA9DD"/>
<path d="M17.5609 9.99061C17.5698 10.1219 17.5698 10.2531 17.5698 10.3844C17.5698 14.3875 14.6828 19 9.40611 19C7.78046 19 6.27031 18.5031 5 17.6406C5.23097 17.6687 5.45303 17.6781 5.69289 17.6781C7.03425 17.6781 8.26904 17.2 9.25509 16.3844C7.99366 16.3563 6.93655 15.4844 6.57233 14.2844C6.75001 14.3125 6.92766 14.3312 7.11423 14.3312C7.37183 14.3312 7.62947 14.2937 7.8693 14.2281C6.55458 13.9469 5.56851 12.7281 5.56851 11.2562V11.2188C5.95047 11.4438 6.39467 11.5844 6.86545 11.6031C6.09261 11.0594 5.58628 10.1312 5.58628 9.08123C5.58628 8.51874 5.72839 8.00311 5.97713 7.55311C7.38958 9.39061 9.51269 10.5906 11.8934 10.7219C11.849 10.4969 11.8223 10.2625 11.8223 10.0281C11.8223 8.35936 13.1015 7 14.6916 7C15.5178 7 16.2639 7.36562 16.7881 7.95625C17.4365 7.82501 18.0584 7.57187 18.6091 7.225C18.3959 7.92814 17.9429 8.51877 17.3477 8.89374C17.9251 8.82815 18.4848 8.65936 19 8.42501C18.6092 9.02499 18.1206 9.55934 17.5609 9.99061Z" fill="white"/>
</svg>
